<?xml version="1.0" encoding="utf-8"?>
<!-- Generator: Adobe Illustrator 17.1.0, SVG Export Plug-In . SVG Version: 6.00 Build 0)  -->
<!DOCTYPE svg PUBLIC "-//W3C//DTD SVG 1.1//EN" "http://www.w3.org/Graphics/SVG/1.1/DTD/svg11.dtd">
<svg version="1.1" id="Default" xmlns="http://www.w3.org/2000/svg" xmlns:xlink="http://www.w3.org/1999/xlink" x="0px" y="0px"
	 viewBox="0 0 101.965 107.064" enable-background="new 0 0 101.965 107.064" xml:space="preserve">
<path fill="#E33061" d="M98.495,32.506c-4.602-11.831-13.419-21.492-24.78-27.152C62.349-0.307,49.322-1.529,37.105,1.928
	C24.888,5.386,14.437,13.243,7.717,24.015c-6.713,10.779-9.164,23.629-6.889,36.12C3.109,72.62,9.94,83.778,20.025,91.491
	c0.523,0.399,0.654,1.137,0.301,1.699c-4.007,6.242-10.524,10.439-17.871,11.485c11.269,4.347,23.969,2.693,33.761-4.386
	c0.314-0.229,0.712-0.301,1.085-0.196c12.23,3.412,25.25,2.137,36.591-3.569c11.341-5.706,20.126-15.4,24.675-27.25
	C103.123,57.423,103.097,44.343,98.495,32.506z M26.712,57.56c-3.634,0-6.576-2.941-6.576-6.576c0-3.634,2.941-6.576,6.576-6.576
	s6.582,2.941,6.582,6.576C33.294,54.619,30.346,57.56,26.712,57.56z M50.982,57.56c-3.634,0-6.576-2.941-6.576-6.576
	c0-3.634,2.941-6.576,6.576-6.576c3.634,0,6.582,2.941,6.582,6.576C57.564,54.619,54.616,57.56,50.982,57.56z M75.252,57.56
	c-3.634,0-6.576-2.941-6.576-6.576c0-3.634,2.941-6.576,6.576-6.576s6.576,2.941,6.576,6.576
	C81.827,54.619,78.886,57.56,75.252,57.56z"/>
</svg>
