<?xml version="1.0" encoding="utf-8"?>
<!-- Generator: Adobe Illustrator 17.1.0, SVG Export Plug-In . SVG Version: 6.00 Build 0)  -->
<!DOCTYPE svg PUBLIC "-//W3C//DTD SVG 1.1//EN" "http://www.w3.org/Graphics/SVG/1.1/DTD/svg11.dtd">
<svg version="1.1" id="Default" xmlns="http://www.w3.org/2000/svg" xmlns:xlink="http://www.w3.org/1999/xlink" x="0px" y="0px"
	 viewBox="0 0 126.2 77.99" enable-background="new 0 0 126.2 77.99" xml:space="preserve">
<g>
	<path fill="#E33061" d="M124.45,21.64c0.99-0.1,1.75-0.94,1.75-1.94V1.95c0-1.08-0.87-1.95-1.95-1.95H1.95C0.88,0,0,0.87,0,1.95
		V19.7c0,1,0.76,1.84,1.76,1.94c8.91,0.9,15.68,8.4,15.68,17.35c0,8.96-6.77,16.46-15.68,17.36c-1,0.1-1.76,0.93-1.76,1.94v17.75
		c0,1.08,0.88,1.95,1.95,1.95h122.3c1.08,0,1.95-0.87,1.95-1.95V58.29c0-1.01-0.76-1.84-1.75-1.94c-8.91-0.9-15.69-8.4-15.69-17.36
		C108.76,30.04,115.54,22.54,124.45,21.64z M100.42,60.47c0,2.17-1.77,3.95-3.95,3.95H29.73c-2.17,0-3.95-1.78-3.95-3.95V17.52
		c0-2.18,1.78-3.95,3.95-3.95h66.74c2.18,0,3.95,1.77,3.95,3.95V60.47z"/>
	<g>
		<polygon fill="#E33061" points="96.42,17.52 96.42,60.42 63.1,60.42 29.78,60.47 29.73,17.57 63.1,17.57 		"/>
	</g>
</g>
</svg>
